<?xml version="1.0" encoding="UTF-8" standalone="no"?>
<svg
   viewBox="0 0 50 50"
   width="250"
   height="250"
   version="1.1"
   id="svg4"
   sodipodi:docname="css_color.svg"
   inkscape:version="1.3.2 (091e20e, 2023-11-25, custom)"
   xmlns:inkscape="http://www.inkscape.org/namespaces/inkscape"
   xmlns:sodipodi="http://sodipodi.sourceforge.net/DTD/sodipodi-0.dtd"
   xmlns="http://www.w3.org/2000/svg"
   xmlns:svg="http://www.w3.org/2000/svg">
  <defs
     id="defs4" />
  <sodipodi:namedview
     id="namedview4"
     pagecolor="#ffffff"
     bordercolor="#000000"
     borderopacity="0.25"
     inkscape:showpageshadow="2"
     inkscape:pageopacity="0.0"
     inkscape:pagecheckerboard="0"
     inkscape:deskcolor="#d1d1d1"
     inkscape:zoom="3.5856206"
     inkscape:cx="124.38572"
     inkscape:cy="110.58058"
     inkscape:window-width="2560"
     inkscape:window-height="1494"
     inkscape:window-x="-11"
     inkscape:window-y="-11"
     inkscape:window-maximized="1"
     inkscape:current-layer="svg4" />
  <path
     fill="#0277bd"
     d="M 47.368421,0 H 2.631579 L 6.5789474,44.736842 25,50 43.421053,44.736842 Z"
     id="path1"
     style="stroke-width:1.31579" />
  <path
     fill="#039be5"
     d="M 25,3.9473684 V 45.921053 L 39.736842,41.710526 43.026316,3.9473684 Z"
     id="path2"
     style="stroke-width:1.31579" />
  <path
     fill="#ffffff"
     d="M 36.973684,10.526316 H 25 v 5.263158 h 6.447368 l -0.394736,5.263158 H 25 v 5.263157 h 5.789474 L 30.394737,32.236842 25,34.078947 v 5.526316 L 35.394737,36.184211 36.31579,21.052632 v 0 z"
     id="path3"
     style="stroke-width:1.31579" />
  <path
     fill="#eeeeee"
     d="m 25,10.526316 v 5.263158 H 13.289474 l -0.394737,-5.263158 z m -6.052632,10.526316 0.263158,5.263157 H 25 v -5.263157 z m 0.526316,7.894736 H 14.210526 L 14.605263,36.184211 25,39.605263 v -5.526316 l -5.394737,-1.842105 z"
     id="path4"
     style="stroke-width:1.31579" />
</svg>
