<?xml version="1.0" encoding="UTF-8" standalone="no"?>
<svg
   width="24"
   height="24"
   viewBox="0 0 24 24"
   version="1.1"
   id="svg1"
   sodipodi:docname="github_logo.svg"
   inkscape:version="1.3.2 (091e20e, 2023-11-25, custom)"
   xmlns:inkscape="http://www.inkscape.org/namespaces/inkscape"
   xmlns:sodipodi="http://sodipodi.sourceforge.net/DTD/sodipodi-0.dtd"
   xmlns="http://www.w3.org/2000/svg"
   xmlns:svg="http://www.w3.org/2000/svg">
  <defs
     id="defs1" />
  <sodipodi:namedview
     id="namedview1"
     pagecolor="#ffffff"
     bordercolor="#000000"
     borderopacity="0.25"
     inkscape:showpageshadow="2"
     inkscape:pageopacity="0.0"
     inkscape:pagecheckerboard="0"
     inkscape:deskcolor="#d1d1d1"
     inkscape:zoom="22.627417"
     inkscape:cx="19.202368"
     inkscape:cy="18.185902"
     inkscape:window-width="2560"
     inkscape:window-height="1494"
     inkscape:window-x="-11"
     inkscape:window-y="-11"
     inkscape:window-maximized="1"
     inkscape:current-layer="svg1" />
  <path
     fill-rule="evenodd"
     clip-rule="evenodd"
     d="m 12.026,0.04937581 c -6.6136721,0 -11.974,5.36032789 -11.974,11.97400019 0,5.289497 3.4298895,9.778246 8.1887562,11.362934 0.5990601,0.108047 0.815154,-0.260513 0.815154,-0.57745 0,-0.284524 -0.0096,-1.038451 -0.013206,-2.036085 C 5.7112577,21.495489 5.0077522,19.166478 5.0077522,19.166478 4.4651165,17.783477 3.678775,17.414917 3.678775,17.414917 2.5923032,16.671794 3.761611,16.688602 3.761611,16.688602 c 1.2029224,0.08404 1.8331961,1.234136 1.8331961,1.234136 1.068464,1.829594 2.8044179,1.301365 3.483913,0.995232 0.1092474,-0.774336 0.421383,-1.302566 0.762331,-1.601496 -2.6579542,-0.30133 -5.452768,-1.328977 -5.452768,-5.91857 0,-1.304967 0.4670028,-2.3758316 1.2293339,-3.2113944 C 5.4963643,7.8827777 5.0821845,6.6642485 5.7364686,5.0171332 c 0,0 1.0048364,-0.3229403 3.2918296,1.2257323 a 11.503396,11.503396 0 0 1 2.9965008,-0.4033752 11.469781,11.469781 0 0 1 2.996502,0.4033752 c 2.288193,-1.5498731 3.291829,-1.2257323 3.291829,-1.2257323 0.654284,1.6471153 0.243706,2.8656445 0.118852,3.1693764 0.768334,0.8355628 1.229334,1.9052274 1.229334,3.2113944 0,4.601599 -2.797215,5.612438 -5.464773,5.908966 0.426185,0.369761 0.810352,1.099678 0.810352,2.216163 0,1.601495 -0.01441,2.893256 -0.01441,3.285827 0,0.320539 0.213693,0.6927 0.824758,0.575049 C 20.573712,21.79682 24,17.311672 24,12.023376 24,5.4097037 18.639672,0.04937581 12.026,0.04937581 Z"
     id="path1"
     style="stroke-width:1.20052;fill:#e8f9f8;stroke:none;stroke-opacity:1;fill-opacity:1" />
  <path
     style="fill:#e8f9f8;stroke-width:0.0394413;stroke:none;stroke-opacity:1;fill-opacity:1"
     d="M 7.8685291,23.228549 C 4.5811227,21.977015 2.0023397,19.395194 0.81919651,16.170912 -0.56128249,12.408853 0.00314019,8.2713189 2.3391557,5.0287592 4.0134744,2.7046825 6.5920127,0.9935469 9.3530357,0.37429987 10.361675,0.14808059 10.797194,0.10288939 11.99014,0.10066361 c 1.154642,-0.0021543 1.425091,0.0207432 2.353348,0.19924604 4.467664,0.85912685 8.144326,4.34111205 9.261994,8.77157745 0.26162,1.0370719 0.357144,1.8290159 0.356438,2.9550659 -0.0012,1.931057 -0.375949,3.544503 -1.22364,5.268434 -1.356492,2.758667 -3.68876,4.863577 -6.5828,5.941081 -0.225415,0.08393 -0.473894,0.152565 -0.552177,0.152531 -0.179882,-7.7e-5 -0.388945,-0.105463 -0.494501,-0.24927 -0.07957,-0.108406 -0.08225,-0.16662 -0.103459,-2.248151 -0.02114,-2.074692 -0.02437,-2.145471 -0.111154,-2.432674 -0.114222,-0.378022 -0.286888,-0.720471 -0.479338,-0.950673 l -0.151793,-0.181569 0.551213,-0.08693 c 2.08631,-0.329023 3.44074,-1.159852 4.164825,-2.554772 0.479823,-0.92436 0.680111,-1.850785 0.681596,-3.15269 0.0016,-1.381013 -0.286149,-2.2268672 -1.106183,-3.2519717 l -0.08109,-0.101366 0.08591,-0.3127671 C 18.680539,7.4244699 18.709938,6.5067908 18.618466,6.01976 18.539578,5.5997261 18.368126,5.0400275 18.306017,4.9997821 18.240869,4.9575677 17.8974,4.963267 17.627622,5.0110394 17.04378,5.1144256 16.214487,5.4676787 15.463386,5.9329352 15.105743,6.1544716 15.011298,6.1964848 14.911209,6.1785694 14.844802,6.1666826 14.577485,6.1127814 14.317173,6.0587887 13.461487,5.8813066 12.801696,5.8265357 11.773213,5.8476076 10.804673,5.8674517 10.204717,5.9379932 9.4067378,6.1258534 L 9.0320459,6.214063 8.6769157,5.9909071 C 7.8774546,5.4885443 7.1354492,5.15881 6.5193292,5.0321125 6.1948223,4.9653818 5.8291061,4.9509609 5.7491556,5.0017431 5.6334811,5.0752158 5.4123162,5.958628 5.3656304,6.5336806 5.3339031,6.924485 5.3997065,7.5673222 5.5069961,7.9146848 l 0.079095,0.2560794 -0.1017375,0.1249712 c -0.8677173,1.0658753 -1.202271,2.2137966 -1.091094,3.7437656 0.072638,0.999616 0.2875531,1.898574 0.6058168,2.53404 0.5542548,1.106662 1.5202262,1.899573 2.8574916,2.345551 0.4694384,0.156558 1.2439163,0.32944 1.6970449,0.37882 l 0.245478,0.02675 -0.1619883,0.182368 c -0.255123,0.28722 -0.4452077,0.729654 -0.5631978,1.310876 -0.017961,0.08848 -0.064189,0.117333 -0.3271967,0.204228 C 7.8676065,19.312581 7.1150435,19.255047 6.4874504,18.849414 6.163902,18.640295 5.932669,18.393819 5.6346383,17.940385 5.0994588,17.126146 4.4294924,16.687629 3.7160709,16.684612 c -0.3193736,-0.0014 -0.5016092,0.08035 -0.5016092,0.224895 0,0.157291 0.082988,0.258274 0.3862329,0.469985 0.6136344,0.428408 1.0071712,0.929864 1.3575219,1.729793 0.219803,0.501859 0.3941498,0.770962 0.6615252,1.02106 0.5893595,0.551277 1.262652,0.788023 2.2290667,0.783793 0.3036977,-0.0013 0.6869798,-0.02706 0.8517381,-0.05717 l 0.2995603,-0.05476 0.024674,0.987557 c 0.031174,1.247717 0.00425,1.383639 -0.3015871,1.522501 -0.2379707,0.108047 -0.3901023,0.09315 -0.854665,-0.08372 z"
     id="path2" />
  <path
     style="fill:#e8f9f8;stroke-width:0.0394413;fill-opacity:1;stroke:none;stroke-opacity:1"
     d="M 7.8685291,23.228549 C 5.4706846,22.315676 3.4503566,20.709318 2.0576038,18.608295 -0.49276563,14.760961 -0.58778038,9.7662645 1.8142845,5.8175841 3.5386134,2.9830131 6.397673,0.97261985 9.6409734,0.31412326 10.572758,0.12494034 11.260291,0.06759077 12.30567,0.09185153 c 1.92159,0.04459556 3.468799,0.43537443 5.172852,1.30650827 3.601708,1.841239 6.006645,5.3598859 6.441994,9.4252352 0.06111,0.570626 0.05104,1.927336 -0.01876,2.527268 -0.167479,1.439596 -0.520645,2.636805 -1.163479,3.944124 -1.177772,2.395209 -3.099072,4.30847 -5.502454,5.479431 -0.659168,0.321156 -1.434971,0.614259 -1.625649,0.614181 -0.186172,-7.6e-5 -0.39448,-0.10364 -0.501375,-0.249267 -0.07956,-0.108388 -0.08226,-0.166882 -0.103784,-2.248151 -0.02142,-2.071639 -0.02482,-2.145877 -0.111155,-2.432033 -0.106771,-0.353868 -0.316146,-0.763754 -0.499638,-0.978124 l -0.133893,-0.156423 0.462274,-0.0685 c 2.825179,-0.41866 4.362059,-1.770147 4.822182,-4.240485 0.107123,-0.575128 0.150857,-1.879234 0.07941,-2.367874 C 19.51329,9.8892494 19.214793,9.1613836 18.776118,8.5797554 18.636589,8.3947566 18.512088,8.2266615 18.499448,8.2062108 c -0.01264,-0.020451 0.01735,-0.1846639 0.06664,-0.3649179 0.07889,-0.2885025 0.08926,-0.4150817 0.08657,-1.0573982 -0.0028,-0.6587607 -0.01319,-0.7674541 -0.1073,-1.1185727 -0.05733,-0.2139005 -0.135826,-0.4535061 -0.17443,-0.5324569 -0.06502,-0.1329844 -0.08462,-0.1444583 -0.266316,-0.155927 -0.602908,-0.038057 -1.575316,0.3113386 -2.6038,0.9355697 -0.389018,0.2361115 -0.493951,0.2832442 -0.591619,0.2657342 -0.0653,-0.011706 -0.331708,-0.065461 -0.59202,-0.1194533 -0.859545,-0.1782824 -1.515066,-0.2323922 -2.54396,-0.2099915 -0.970072,0.02112 -1.595743,0.094253 -2.3664752,0.2766121 L 9.0320459,6.214063 8.6636654,5.9825795 C 7.8883633,5.4953937 7.1249657,5.1574891 6.5149413,5.0314854 6.1976345,4.9659439 5.8290138,4.9509968 5.7511438,5.0005141 5.6869137,5.0413583 5.5175317,5.5737662 5.4370191,5.9878828 5.3170416,6.6049888 5.3547652,7.4356693 5.5273277,7.9764955 L 5.5869463,8.1633449 5.3269614,8.5089524 C 4.650275,9.4084976 4.3808676,10.267971 4.384118,11.516845 c 0.00655,2.51643 0.8858717,4.178014 2.6914708,5.085852 0.6108361,0.307122 1.6868217,0.608993 2.4780238,0.695215 l 0.245478,0.02675 -0.1568503,0.178191 c -0.2611543,0.296687 -0.4505832,0.735001 -0.5683358,1.315053 -0.017961,0.08848 -0.064189,0.117333 -0.3271967,0.204228 -0.8791013,0.290445 -1.6316643,0.232911 -2.2592574,-0.172722 -0.316772,-0.20474 -0.5575912,-0.457083 -0.8211779,-0.860477 -0.545151,-0.8343 -1.2365446,-1.301419 -1.930481,-1.304271 -0.6940088,-0.0029 -0.7016723,0.313801 -0.018937,0.782453 0.504153,0.346067 0.9050844,0.874647 1.2362919,1.629902 0.4374318,0.99748 1.0428017,1.514319 2.0476748,1.748218 0.3645606,0.08486 1.2597878,0.09073 1.6997249,0.01115 l 0.2995603,-0.05419 0.024674,0.987557 c 0.031174,1.247717 0.00425,1.383639 -0.3015871,1.522501 -0.2379707,0.108047 -0.3901023,0.09315 -0.854665,-0.08372 z"
     id="path3" />
  <path
     style="fill:#e8f9f8;fill-opacity:1;stroke-width:0.0394413;stroke:none;stroke-opacity:1"
     d="M 8.1446178,23.302767 C 7.5577592,23.135535 6.21145,22.461936 5.4428923,21.951013 4.1695761,21.104536 2.9538306,19.895534 2.1134347,18.640023 0.06947669,15.586447 -0.4508014,11.738784 0.71025331,8.2629416 1.3547265,6.3335857 2.5756747,4.4683925 4.0407863,3.1750205 5.8254882,1.5995207 7.7751211,0.66014569 10.112793,0.24939749 c 0.473976,-0.0832814 0.744199,-0.10465903 1.528252,-0.12090133 1.717793,-0.0355855 2.963774,0.14927813 4.350101,0.64541576 0.645702,0.23108308 1.872324,0.83550888 2.455907,1.21016318 2.947462,1.8922399 4.885803,4.9142379 5.393425,8.4086939 0.102391,0.70486 0.113792,2.358933 0.02126,3.084257 -0.559679,4.387053 -3.508384,8.143121 -7.611943,9.696115 -0.509791,0.192931 -0.777259,0.217672 -0.96631,0.08938 -0.08186,-0.05555 -0.156481,-0.149576 -0.183345,-0.231034 -0.02995,-0.0908 -0.05431,-0.78546 -0.07187,-2.049503 -0.01461,-1.051679 -0.04255,-2.049749 -0.06207,-2.217934 -0.04261,-0.367009 -0.217766,-0.809559 -0.461076,-1.16495 -0.09529,-0.139189 -0.16769,-0.256415 -0.160882,-0.260502 0.0068,-0.0041 0.260192,-0.04813 0.563079,-0.09787 1.711855,-0.281117 2.93882,-0.929528 3.730874,-1.971646 0.391184,-0.514687 0.742539,-1.350022 0.908001,-2.15874 0.104332,-0.509934 0.153191,-2.159621 0.07681,-2.593609 C 19.50169,9.8273708 19.202731,9.1320938 18.772621,8.5390303 18.606126,8.3094562 18.520723,8.156193 18.530865,8.1051766 c 0.0086,-0.043385 0.04679,-0.2277993 0.08482,-0.4098088 0.09852,-0.4715493 0.06747,-1.6252902 -0.05531,-2.0552693 C 18.374346,4.9886226 18.358051,4.9695094 17.988957,4.9698738 17.40215,4.9704532 16.563753,5.2731663 15.579293,5.8399107 14.954594,6.1995446 15.082815,6.1824658 14.21857,6.0211531 13.428941,5.8737674 13.00868,5.8373012 12.100157,5.8373379 c -1.14792,4.61e-5 -1.80799,0.064814 -2.6454177,0.2595755 L 9.0491662,6.1912379 8.5475906,5.8889034 C 7.5825481,5.3072049 6.8044957,5.012664 6.1438749,4.9789476 L 5.7392645,4.9582974 5.6629386,5.1315727 C 5.3479824,5.8465861 5.2654899,6.960713 5.4646836,7.809168 l 0.082642,0.35201 -0.274513,0.3861326 c -0.6122966,0.86126 -0.848795,1.5629974 -0.9004481,2.6718054 -0.057631,1.237135 0.2014217,2.584165 0.6652106,3.458985 0.532727,1.004855 1.4749307,1.78734 2.6482416,2.199324 0.6143645,0.215721 1.5805236,0.437091 1.908267,0.437229 0.070501,3e-5 0.128184,0.0097 0.128184,0.02147 0,0.01178 -0.069764,0.113832 -0.1550321,0.226787 -0.2007382,0.265922 -0.3337285,0.55682 -0.4420871,0.967 -0.061661,0.233411 -0.1124813,0.346809 -0.1732804,0.386646 -0.1740853,0.114065 -0.8406196,0.251893 -1.2181543,0.251893 -0.8587733,0 -1.4608128,-0.353357 -2.0556495,-1.20653 -0.4379781,-0.62819 -0.911776,-1.03243 -1.4132087,-1.205737 -0.2266247,-0.07833 -0.8099732,-0.09844 -0.9337591,-0.03219 -0.2688732,0.143897 -0.132012,0.405636 0.4173609,0.798178 0.4389328,0.313631 0.8267487,0.826293 1.1516878,1.522442 0.5715222,1.22443 1.27093,1.744392 2.5098304,1.865891 0.4086749,0.04008 1.3198103,-6.79e-4 1.4919631,-0.06674 0.048512,-0.01862 0.063394,0.04123 0.084625,0.340344 0.0412,0.580433 0.024961,1.654637 -0.027653,1.829212 -0.083578,0.277317 -0.4276603,0.399623 -0.8142929,0.289447 z"
     id="path4" />
  <path
     style="fill:#e8f9f8;fill-opacity:1;stroke-width:0.0394413"
     d=""
     id="path5" />
  <path
     style="fill:#e8f9f8;fill-opacity:1;stroke-width:0.0394413;stroke:none;stroke-opacity:1"
     d="M 7.8488084,23.196443 C 6.716494,22.76487 5.5470744,22.093395 4.5554642,21.305421 4.0519679,20.905323 3.1034339,19.954029 2.6999765,19.444535 1.7549258,18.251108 1.0425203,16.887152 0.59792187,15.419989 0.3009448,14.439972 0.14860605,13.488373 0.11198772,12.384552 0.00383403,9.1243743 1.2705201,5.9275132 3.5891563,3.608877 5.3822703,1.8157629 7.6128744,0.67526312 10.195563,0.23104505 c 0.48061,-0.0826642 0.653431,-0.0915549 1.774856,-0.0913064 0.98936,2.1919e-4 1.338795,0.0146365 1.715694,0.0707878 1.445374,0.21533506 2.43497,0.53429302 3.775387,1.21685085 3.459981,1.761867 5.81295,5.068869 6.378978,8.9653917 0.102391,0.70486 0.113792,2.358933 0.02126,3.084257 -0.328134,2.572086 -1.481773,4.975292 -3.283651,6.840349 -1.195396,1.237311 -2.746648,2.261091 -4.328292,2.856544 -0.510588,0.192226 -0.777539,0.216704 -0.96631,0.08861 -0.08207,-0.05569 -0.156079,-0.149067 -0.18252,-0.230278 -0.02853,-0.08762 -0.05867,-0.900392 -0.08405,-2.26643 -0.03942,-2.121483 -0.03996,-2.130918 -0.137953,-2.408224 -0.121432,-0.34363 -0.192897,-0.485921 -0.391945,-0.780383 -0.0857,-0.126781 -0.150102,-0.234006 -0.143113,-0.238276 0.007,-0.0043 0.260525,-0.04846 0.563412,-0.0982 2.124487,-0.348879 3.490986,-1.252554 4.202721,-2.77929 0.184803,-0.39642 0.370865,-0.994969 0.455575,-1.465554 0.08732,-0.485105 0.123879,-2.042135 0.05765,-2.455515 C 19.515662,9.8687533 19.219636,9.1675613 18.79029,8.5673219 18.658239,8.3827112 18.541822,8.2098406 18.531587,8.1831657 c -0.01024,-0.026675 0.01334,-0.1616263 0.0524,-0.2998919 0.05823,-0.206146 0.07094,-0.4004663 0.0706,-1.0796584 -3.74e-4,-0.7537661 -0.0089,-0.8584211 -0.09496,-1.1635169 -0.19308,-0.6845892 -0.196384,-0.6877871 -0.683499,-0.6616202 -0.599232,0.03219 -1.350117,0.3194757 -2.406875,0.9208632 L 15.004242,6.1639734 14.759311,6.1204661 C 14.624598,6.0965375 14.257025,6.0282963 13.942481,5.9688196 13.393857,5.8650805 13.318417,5.8606355 12.088743,5.8595922 10.714089,5.858426 10.370386,5.889041 9.4730353,6.0925851 L 9.0463177,6.1893763 8.5856072,5.911502 C 7.5432942,5.2828385 6.686745,4.9695973 6.0099939,4.9695973 H 5.7342661 L 5.6604392,5.1372226 C 5.3500949,5.8418662 5.2663395,6.9778593 5.4637819,7.8045207 c 0.042743,0.1789555 0.077713,0.3381483 0.077713,0.3537615 0,0.015614 -0.1118696,0.1801826 -0.248599,0.3657084 C 4.8461576,9.1301631 4.5706436,9.7509467 4.454749,10.41249 c -0.1345187,0.767851 -0.1081235,1.885544 0.064623,2.736418 0.2332118,1.148698 0.6501728,1.946399 1.3859276,2.651458 0.5720653,0.548198 1.2213973,0.91286 2.0960464,1.177131 0.524877,0.158589 1.3607349,0.337211 1.5779726,0.337211 0.078622,0 0.1429492,0.0088 0.1429492,0.01961 0,0.01079 -0.078741,0.126571 -0.1749787,0.257302 -0.1788625,0.242967 -0.3686076,0.682828 -0.4556225,1.05621 -0.031935,0.137032 -0.079224,0.229034 -0.1372729,0.267069 -0.1763075,0.115522 -0.8408216,0.253548 -1.2206798,0.253548 -0.8608743,0 -1.443702,-0.342824 -2.0672299,-1.215961 C 5.2980857,17.436612 4.8830044,17.048409 4.4945145,16.856407 4.2104101,16.715995 4.1582719,16.703799 3.7826765,16.689895 c -0.3916601,-0.0145 -0.4086732,-0.01161 -0.5062545,0.08597 -0.087975,0.08798 -0.095571,0.115187 -0.059002,0.211372 0.057247,0.150573 0.1265556,0.222039 0.4703363,0.48498 0.5526279,0.422679 0.8297173,0.786615 1.2551547,1.648551 0.2823879,0.572117 0.4307169,0.783658 0.7759048,1.106564 0.292497,0.273617 0.6799986,0.476966 1.1487666,0.60284 0.2606336,0.06998 0.4219929,0.08341 1.0009463,0.08325 0.379622,-10e-5 0.7789508,-0.01858 0.8873969,-0.04106 0.1084465,-0.02248 0.2043995,-0.03365 0.2132289,-0.02482 0.00883,0.0088 0.023456,0.455516 0.032503,0.992636 0.019528,1.159276 -0.00152,1.280083 -0.2473377,1.419311 -0.2274695,0.128838 -0.4410856,0.113965 -0.9055119,-0.06305 z"
     id="path6" />
  <path
     style="fill:#e8f9f8;fill-opacity:1;stroke-width:0.00390625;stroke:none;stroke-opacity:1"
     d="m 16.83431,22.963435 c 8.95e-4,-7.75e-4 0.03415,-0.01592 0.07389,-0.03366 0.529225,-0.236194 1.083045,-0.537236 1.591797,-0.865261 1.085112,-0.69964 2.058377,-1.580311 2.857892,-2.585997 0.685881,-0.862751 1.228058,-1.776201 1.682105,-2.833985 0.186351,-0.434137 0.340048,-0.861324 0.471871,-1.311523 0.02638,-0.0901 0.02668,-0.09082 0.03736,-0.09082 h 0.01077 l -0.0099,0.03613 c -0.07879,0.287939 -0.222805,0.72059 -0.348133,1.045899 -0.676154,1.755065 -1.763192,3.332423 -3.168858,4.598203 -0.912394,0.821596 -1.956314,1.504912 -3.068654,2.008641 -0.07192,0.03257 -0.07562,0.03378 -0.10319,0.03378 -0.01573,0 -0.02786,-6.34e-4 -0.02697,-0.0014 z"
     id="path7" />
  <path
     style="fill:#e8f9f8;fill-opacity:1;stroke-width:0.00390625;stroke:none;stroke-opacity:1"
     d="m 16.854696,22.961686 c -0.0028,-0.0017 0.03726,-0.02197 0.09766,-0.04941 1.121389,-0.509586 2.150877,-1.183781 3.069023,-2.009852 0.208431,-0.187529 0.538706,-0.511394 0.719152,-0.705195 0.922492,-0.99077 1.638609,-2.072982 2.204832,-3.331991 0.222742,-0.495272 0.399753,-0.967642 0.546724,-1.458984 0.04584,-0.153245 0.04831,-0.160156 0.05733,-0.160156 0.0056,0 0.0072,0.0019 0.0056,0.0068 -0.0012,0.0038 -0.01105,0.03848 -0.02197,0.07715 -0.06223,0.220414 -0.173321,0.559476 -0.269415,0.822266 -0.285707,0.781326 -0.671676,1.561949 -1.125682,2.276695 -0.686893,1.081382 -1.544579,2.048418 -2.537831,2.861389 -0.767146,0.627904 -1.628207,1.169347 -2.519851,1.584503 -0.177558,0.08267 -0.211305,0.09565 -0.225606,0.08676 z"
     id="path8" />
  <path
     style="fill:#e8f9f8;fill-opacity:1;stroke-width:0.00390625;stroke:none;stroke-opacity:1"
     d="m 15.052702,22.96582 c -1.7e-5,-0.0016 -0.0017,-0.01787 -0.0037,-0.03613 -0.01889,-0.169735 -0.02606,-0.524328 -0.04318,-2.134765 -0.01942,-1.827547 -0.02629,-2.01406 -0.08241,-2.237793 -0.02503,-0.09978 -0.06692,-0.225073 -0.117243,-0.350675 l -0.03075,-0.07675 v -0.439675 -0.439675 l 0.01269,-0.0021 c 0.007,-0.0012 0.04609,-0.0075 0.08691,-0.01395 0.04082,-0.0065 0.117303,-0.0196 0.16996,-0.02912 1.217047,-0.220125 2.169562,-0.62338 2.88899,-1.223077 0.104134,-0.0868 0.182931,-0.159019 0.287049,-0.263072 0.14721,-0.147119 0.248243,-0.262561 0.383952,-0.438713 l 0.02633,-0.03418 h 2.450688 2.450687 l -0.0032,0.01074 c -0.0017,0.0059 -0.01053,0.03623 -0.01953,0.06738 -0.292802,1.014029 -0.788156,2.112161 -1.375291,3.048828 -0.599243,0.955981 -1.319914,1.811088 -2.157139,2.559534 -0.921324,0.823627 -1.973414,1.503631 -3.111675,2.011189 l -0.05602,0.02498 h -0.87855 c -0.483202,0 -0.878564,-0.0013 -0.878582,-0.0029 z"
     id="path9" />
  <path
     style="fill:#e8f9f8;fill-opacity:1;stroke-width:0.00552427;stroke:none;stroke-opacity:1"
     d="m 15.498344,23.373377 c -0.134416,-0.02888 -0.263622,-0.100613 -0.350781,-0.194753 -0.05814,-0.06279 -0.07401,-0.09513 -0.08829,-0.17986 -0.02616,-0.155237 -0.03447,-0.478892 -0.04981,-1.94024 -0.02342,-2.231743 -0.02695,-2.312956 -0.112813,-2.597662 -0.08734,-0.289603 -0.239136,-0.611749 -0.399612,-0.848062 -0.02732,-0.04023 -0.09012,-0.121028 -0.139556,-0.179539 -0.04943,-0.05851 -0.08703,-0.10696 -0.08356,-0.107666 0.0035,-7.05e-4 0.11694,-0.01758 0.252147,-0.0375 0.135206,-0.01992 0.312949,-0.04746 0.394985,-0.06119 1.802696,-0.301791 3.048729,-0.998751 3.82119,-2.137354 0.2517,-0.371003 0.464983,-0.822139 0.613753,-1.298204 0.03309,-0.105894 0.08911,-0.303832 0.09525,-0.336598 l 0.0037,-0.01972 h 2.217631 2.217631 l -0.003,0.01795 c -0.0017,0.0099 -0.0094,0.06643 -0.01707,0.125677 -0.142989,1.0977 -0.422706,2.115448 -0.855035,3.11104 -0.624074,1.437153 -1.441147,2.655856 -2.500683,3.729889 -0.899205,0.911508 -1.907258,1.648472 -3.082544,2.253574 -0.583843,0.300596 -1.397907,0.630088 -1.729097,0.699851 -0.06548,0.01379 -0.141257,0.01393 -0.204398,3.63e-4 z"
     id="path10" />
  <path
     style="fill:#e8f9f8;fill-opacity:1;stroke-width:0.00552427"
     d=""
     id="path11" />
  <path
     style="fill:#e8f9f8;fill-opacity:1;stroke-width:0.00552427"
     d=""
     id="path12" />
  <path
     style="fill:#e8f9f8;fill-opacity:1;stroke-width:0.00390625;stroke:none;stroke-opacity:1"
     d="m 14.953928,18.82667 c -0.01103,-0.07173 -0.03676,-0.196473 -0.05807,-0.281517 -0.05504,-0.219591 -0.119862,-0.398863 -0.212513,-0.587713 -0.02466,-0.05026 -0.04402,-0.0922 -0.04303,-0.09319 0.0024,-0.0024 0.06959,0.132163 0.105608,0.21167 0.08333,0.183955 0.160048,0.406752 0.187205,0.543675 0.0116,0.0585 0.01952,0.115624 0.02599,0.18738 0.0061,0.06727 0.0036,0.07669 -0.0052,0.0197 z"
     id="path13" />
</svg>
