<?xml version="1.0" encoding="UTF-8" standalone="no"?>
<!-- Uploaded to: SVG Repo, www.svgrepo.com, Generator: SVG Repo Mixer Tools -->

<svg
   fill="#000000"
   width="38"
   height="24"
   viewBox="0 0 1.14 0.72"
   role="img"
   version="1.1"
   id="svg1"
   sodipodi:docname="kofi_logo.svg"
   inkscape:version="1.3.2 (091e20e, 2023-11-25, custom)"
   xmlns:inkscape="http://www.inkscape.org/namespaces/inkscape"
   xmlns:sodipodi="http://sodipodi.sourceforge.net/DTD/sodipodi-0.dtd"
   xmlns="http://www.w3.org/2000/svg"
   xmlns:svg="http://www.w3.org/2000/svg">
  <defs
     id="defs1" />
  <sodipodi:namedview
     id="namedview1"
     pagecolor="#ffffff"
     bordercolor="#000000"
     borderopacity="0.25"
     inkscape:showpageshadow="2"
     inkscape:pageopacity="0.0"
     inkscape:pagecheckerboard="0"
     inkscape:deskcolor="#d1d1d1"
     inkscape:zoom="24.34"
     inkscape:cx="17.933443"
     inkscape:cy="18.138866"
     inkscape:window-width="2560"
     inkscape:window-height="1494"
     inkscape:window-x="-11"
     inkscape:window-y="-11"
     inkscape:window-maximized="1"
     inkscape:current-layer="svg1" />
  <path
     d="M 1.1311872,0.21579214 C 1.0946747,0.02283794 0.90167328,-0.00115734 0.90167328,-0.00115734 H 0.0373235 c -0.02852982,0 -0.03207243,0.03769338 -0.03207243,0.03769338 0,0 -0.00387325,0.34594775 -0.00103916,0.55840991 0.00774651,0.11449721 0.12214922,0.12621139 0.12214922,0.12621139 0,0 0.39049016,-0.001086 0.56521172,-0.002315 C 0.80673125,0.69872068 0.81830387,0.59763806 0.81712291,0.5424679 1.0226888,0.55380354 1.1676997,0.40874607 1.1311872,0.21579214 Z M 0.60867576,0.38163356 c -0.0588546,0.0686322 -0.18945881,0.18780559 -0.18945881,0.18780559 0,0 -0.005716,0.005621 -0.0146423,0.001086 -0.00359,-0.002693 -0.005102,-0.004251 -0.005102,-0.004251 C 0.37854784,0.54544354 0.24038602,0.42225508 0.20892764,0.37950766 0.17543814,0.33392607 0.15975622,0.25197359 0.20462895,0.20426652 c 0.0449202,-0.0477072 0.14194052,-0.051297 0.20608548,0.0192246 0,0 0.0739224,-0.0841724 0.16381031,-0.0454871 0.0899351,0.0387325 0.0865341,0.14222395 0.034151,0.20362954 z m 0.29158048,0.0225782 c -0.0438339,0.00548 -0.079449,0.001323 -0.079449,0.001323 V 0.13719341 h 0.0836057 c 0,0 0.0930998,0.0260264 0.0930998,0.12460543 0,0.0903601 -0.0465264,0.12597521 -0.0972565,0.14241292 z"
     id="path1"
     style="stroke-width:0.0472348;fill:#e8f9f8;fill-opacity:1" />
</svg>
