<?xml version="1.0" encoding="UTF-8" standalone="no"?>
<svg
   width="24"
   height="24"
   viewBox="0 0 24 24"
   version="1.1"
   id="svg1"
   sodipodi:docname="youtube_logo.svg"
   inkscape:version="1.3.2 (091e20e, 2023-11-25, custom)"
   xmlns:inkscape="http://www.inkscape.org/namespaces/inkscape"
   xmlns:sodipodi="http://sodipodi.sourceforge.net/DTD/sodipodi-0.dtd"
   xmlns="http://www.w3.org/2000/svg"
   xmlns:svg="http://www.w3.org/2000/svg">
  <defs
     id="defs1" />
  <sodipodi:namedview
     id="namedview1"
     pagecolor="#ffffff"
     bordercolor="#000000"
     borderopacity="0.25"
     inkscape:showpageshadow="2"
     inkscape:pageopacity="0.0"
     inkscape:pagecheckerboard="0"
     inkscape:deskcolor="#d1d1d1"
     inkscape:zoom="50.708333"
     inkscape:cx="12"
     inkscape:cy="12"
     inkscape:window-width="2560"
     inkscape:window-height="1494"
     inkscape:window-x="-11"
     inkscape:window-y="-11"
     inkscape:window-maximized="1"
     inkscape:current-layer="svg1" />
  <path
     d="M 23.511656,6.243065 A 3.006853,3.006853 0 0 0 21.3975,4.1241095 C 19.518517,3.608169 12.001385,3.59977 12.001385,3.59977 c 0,0 -7.5159332,-0.0084 -9.3961163,0.4847441 A 3.0716456,3.0716456 0 0 0 0.48631323,6.2178679 c -0.49554282,1.8789832 -0.50034226,5.7761331 -0.50034226,5.7761331 0,0 -0.0047995,3.916348 0.48714379,5.776134 0.27596815,1.028281 1.08587474,1.840587 2.11535594,2.117756 1.8981809,0.51594 9.3949163,0.524339 9.3949163,0.524339 0,0 7.517132,0.0084 9.396115,-0.483544 A 3.0176518,3.0176518 0 0 0 23.499658,17.81333 C 23.9964,15.935547 24,12.039596 24,12.039596 c 0,0 0.024,-3.9175478 -0.488344,-5.796531 z m -13.914794,9.36132 0.006,-7.1991695 6.247679,3.6055835 z"
     id="path1"
     style="stroke-width:1.19986;fill:#e8f9f8;fill-opacity:1" />
</svg>
